<?xml version="1.0" encoding="utf-8"?>
<!-- Generator: Adobe Illustrator 23.0.0, SVG Export Plug-In . SVG Version: 6.00 Build 0)  -->
<svg version="1.1" id="레이어_1" xmlns="http://www.w3.org/2000/svg" xmlns:xlink="http://www.w3.org/1999/xlink" x="0px"
	 y="0px" viewBox="0 0 2560 2560" style="enable-background:new 0 0 2560 2560;" xml:space="preserve">
<style type="text/css">
	.st0{opacity:0.76;fill:#F19595;enable-background:new    ;}
	.st1{opacity:0.99;fill:#F19595;enable-background:new    ;}
	.st2{opacity:0.85;fill:#F19595;enable-background:new    ;}
	.st3{opacity:0.79;fill:#F19595;enable-background:new    ;}
	.st4{opacity:0.74;fill:#F19595;enable-background:new    ;}
	.st5{opacity:0.86;fill:#F19595;enable-background:new    ;}
	.st6{opacity:0.83;fill:#F19595;enable-background:new    ;}
	.st7{opacity:0.82;fill:#F19595;enable-background:new    ;}
	.st8{opacity:0.97;fill:#F19595;enable-background:new    ;}
	.st9{opacity:0.9;fill:#F19595;enable-background:new    ;}
	.st10{opacity:0.88;fill:#F19595;enable-background:new    ;}
	.st11{opacity:0.98;fill:#F19595;enable-background:new    ;}
	.st12{opacity:0.8;fill:#F19595;enable-background:new    ;}
	.st13{opacity:0.72;fill:#F19595;enable-background:new    ;}
	.st14{opacity:0.91;fill:#F19595;enable-background:new    ;}
	.st15{opacity:0.94;fill:#F19595;enable-background:new    ;}
	.st16{opacity:0.93;fill:#F19595;enable-background:new    ;}
	.st17{opacity:0.96;fill:#F19595;enable-background:new    ;}
	.st18{opacity:0.95;fill:#F19595;enable-background:new    ;}
	.st19{opacity:0.76;fill:none;stroke:#EEE236;stroke-width:3;enable-background:new    ;}
	.st20{opacity:0.75;fill:none;stroke:#EEE236;stroke-width:3;enable-background:new    ;}
	.st21{opacity:0.98;fill:none;stroke:#EEE236;stroke-width:3;enable-background:new    ;}
	.st22{opacity:0.97;fill:none;stroke:#EEE236;stroke-width:3;enable-background:new    ;}
	.st23{opacity:0.92;fill:none;stroke:#EEE236;stroke-width:3;enable-background:new    ;}
	.st24{opacity:0.8;fill:none;stroke:#EEE236;stroke-width:3;enable-background:new    ;}
	.st25{opacity:0.73;fill:none;stroke:#EEE236;stroke-width:3;enable-background:new    ;}
	.st26{opacity:0.91;fill:none;stroke:#EEE236;stroke-width:3;enable-background:new    ;}
	.st27{opacity:0.94;fill:none;stroke:#EEE236;stroke-width:3;enable-background:new    ;}
	.st28{opacity:0.78;fill:none;stroke:#EEE236;stroke-width:3;enable-background:new    ;}
	.st29{opacity:0.83;fill:none;stroke:#EEE236;stroke-width:3;enable-background:new    ;}
	.st30{opacity:0.7;fill:none;stroke:#EEE236;stroke-width:3;enable-background:new    ;}
	.st31{opacity:0.99;fill:none;stroke:#EEE236;stroke-width:3;enable-background:new    ;}
	.st32{opacity:0.81;fill:none;stroke:#EEE236;stroke-width:3;enable-background:new    ;}
	.st33{opacity:0.82;fill:none;stroke:#EEE236;stroke-width:3;enable-background:new    ;}
	.st34{opacity:0.77;fill:none;stroke:#EEE236;stroke-width:3;enable-background:new    ;}
	.st35{fill:none;stroke:#EEE236;stroke-width:3;}
	.st36{opacity:0.79;fill:none;stroke:#EEE236;stroke-width:3;enable-background:new    ;}
	.st37{opacity:0.7;fill:none;stroke:#71BCF4;stroke-width:4;enable-background:new    ;}
	.st38{opacity:0.92;fill:none;stroke:#71BCF4;stroke-width:4;enable-background:new    ;}
	.st39{opacity:0.76;fill:none;stroke:#71BCF4;stroke-width:4;enable-background:new    ;}
	.st40{opacity:0.89;fill:none;stroke:#71BCF4;stroke-width:4;enable-background:new    ;}
	.st41{opacity:0.84;fill:none;stroke:#71BCF4;stroke-width:4;enable-background:new    ;}
	.st42{opacity:0.87;fill:none;stroke:#71BCF4;stroke-width:4;enable-background:new    ;}
	.st43{opacity:0.96;fill:none;stroke:#71BCF4;stroke-width:4;enable-background:new    ;}
	.st44{opacity:0.83;fill:none;stroke:#71BCF4;stroke-width:4;enable-background:new    ;}
	.st45{opacity:0.72;fill:none;stroke:#71BCF4;stroke-width:4;enable-background:new    ;}
	.st46{opacity:0.95;fill:none;stroke:#71BCF4;stroke-width:4;enable-background:new    ;}
	.st47{opacity:0.9;fill:none;stroke:#71BCF4;stroke-width:4;enable-background:new    ;}
	.st48{opacity:0.93;fill:none;stroke:#71BCF4;stroke-width:4;enable-background:new    ;}
	.st49{opacity:0.75;fill:none;stroke:#71BCF4;stroke-width:4;enable-background:new    ;}
	.st50{opacity:0.98;fill:none;stroke:#71BCF4;stroke-width:4;enable-background:new    ;}
	.st51{opacity:0.8;fill:none;stroke:#71BCF4;stroke-width:4;enable-background:new    ;}
	.st52{opacity:0.86;fill:none;stroke:#71BCF4;stroke-width:4;enable-background:new    ;}
	.st53{opacity:0.79;fill:none;stroke:#71BCF4;stroke-width:4;enable-background:new    ;}
	.st54{opacity:0.73;fill:none;stroke:#71BCF4;stroke-width:4;enable-background:new    ;}
</style>
<g>
	<path class="st0" d="M2540.5,1852.3c-0.2-0.2-0.4-0.4-0.6-0.6c-0.6-0.9-0.3-2.1,0.6-2.6c0.5-0.3,5.1-3,9.3-1.2c2.5,1,4.1,3.3,5,6.6
		c0.6,2.2,1.5,3.6,2.8,4.2c2.1,0.9,5.1-0.3,6-0.8c0.9-0.5,2.1-0.2,2.7,0.7c0.5,0.9,0.3,2.1-0.7,2.6c-0.2,0.1-5.1,2.9-9.4,1
		c-2.5-1.1-4.2-3.4-5.1-6.9c-0.5-2.1-1.4-3.4-2.6-3.9c-2-0.9-4.9,0.4-5.8,1C2541.9,1852.8,2541.1,1852.7,2540.5,1852.3z"/>
	<path class="st1" d="M2256.4,1508.8c-0.2-0.2-0.4-0.4-0.5-0.7c-0.5-1-0.1-2.1,0.9-2.6c0.5-0.3,5.4-2.4,9.4-0.3
		c2.3,1.3,3.8,3.7,4.2,7.1c0.3,2.3,1.1,3.8,2.4,4.5c2,1.1,5.1,0.2,6-0.2c1-0.4,2.1,0,2.6,1c0.4,1,0,2.1-0.9,2.5
		c-0.2,0.1-5.4,2.4-9.5,0c-2.4-1.3-3.9-3.8-4.4-7.4c-0.3-2.1-1-3.6-2.2-4.2c-1.9-1.1-4.9-0.1-5.9,0.4
		C2257.8,1509.4,2257,1509.3,2256.4,1508.8z"/>
	<path class="st2" d="M2479.9,1293.6c0.1,0.3,0.2,0.5,0.2,0.8c0,1.1-0.9,1.9-1.9,1.9c-0.6,0-5.9-0.2-8.6-3.9
		c-1.5-2.2-1.8-4.9-0.7-8.2c0.7-2.2,0.7-3.9-0.2-5.1c-1.3-1.9-4.5-2.4-5.5-2.4c-1.1,0-1.9-0.9-1.9-2c0-1.1,0.9-1.9,2-1.9
		c0.2,0,5.9,0.2,8.6,4.1c1.6,2.3,1.8,5.1,0.7,8.5c-0.7,2.1-0.6,3.7,0.1,4.7c1.3,1.8,4.4,2.2,5.5,2.3
		C2478.9,1292.5,2479.6,1292.9,2479.9,1293.6z"/>
	<path class="st3" d="M2328.5,939.6c0.2-0.2,0.4-0.4,0.7-0.5c1-0.4,2.1,0,2.5,1c0.2,0.6,2.2,5.5-0.2,9.4c-1.4,2.3-3.9,3.6-7.3,3.9
		c-2.3,0.2-3.8,0.9-4.6,2.1c-1.2,1.9-0.5,5.1-0.1,6c0.4,1-0.1,2.1-1.1,2.5c-1,0.4-2.1-0.1-2.5-1.1c-0.1-0.2-2.1-5.5,0.5-9.5
		c1.5-2.3,4-3.7,7.6-4c2.2-0.2,3.6-0.9,4.3-2c1.2-1.9,0.4-4.9-0.1-5.9C2327.9,940.9,2328.1,940.1,2328.5,939.6z"/>
	<path class="st4" d="M2364.1,507.6c0.2,0.2,0.4,0.4,0.5,0.7c0.5,1,0.1,2.1-0.9,2.6c-0.5,0.3-5.4,2.4-9.4,0.3
		c-2.3-1.3-3.8-3.7-4.2-7.1c-0.3-2.3-1.1-3.8-2.4-4.5c-2-1.1-5.1-0.2-6,0.2c-1,0.4-2.1,0-2.6-1c-0.4-1,0-2.1,0.9-2.5
		c0.2-0.1,5.4-2.4,9.5,0c2.4,1.3,3.9,3.8,4.4,7.4c0.3,2.1,1,3.6,2.2,4.2c1.9,1.1,4.9,0.1,5.9-0.4
		C2362.8,507,2363.5,507.1,2364.1,507.6z"/>
	<path class="st4" d="M1929,1813.4c-0.2-0.2-0.4-0.4-0.6-0.6c-0.5-0.9-0.2-2.1,0.7-2.6c0.5-0.3,5.3-2.7,9.4-0.7
		c2.4,1.2,3.9,3.5,4.6,6.9c0.4,2.3,1.3,3.7,2.6,4.4c2.1,1,5.1-0.1,6-0.5c0.9-0.5,2.1-0.1,2.6,0.8c0.5,0.9,0.1,2.1-0.8,2.6
		c-0.2,0.1-5.2,2.6-9.5,0.5c-2.5-1.2-4.1-3.6-4.7-7.1c-0.4-2.1-1.2-3.5-2.4-4.1c-2-1-4.9,0.2-5.9,0.7
		C1930.3,1813.9,1929.5,1813.8,1929,1813.4z"/>
	<path class="st5" d="M2151.1,992c0.2,0.1,0.5,0.3,0.6,0.6c0.6,0.9,0.5,2.1-0.4,2.7c-0.5,0.4-4.8,3.4-9.2,2
		c-2.5-0.8-4.4-2.9-5.5-6.2c-0.7-2.2-1.8-3.5-3.2-4c-2.2-0.7-5,0.8-5.9,1.4c-0.9,0.6-2.1,0.4-2.7-0.5c-0.6-0.9-0.4-2.1,0.4-2.7
		c0.2-0.1,4.8-3.3,9.3-1.9c2.6,0.9,4.5,3,5.7,6.4c0.7,2,1.7,3.3,3,3.7c2.1,0.7,4.8-0.8,5.7-1.5
		C2149.7,991.7,2150.5,991.6,2151.1,992z"/>
	<path class="st2" d="M1974.3,757.6c-0.1-0.3-0.2-0.5-0.2-0.8c0-1.1,0.9-1.9,1.9-1.9c0.6,0,5.9,0.3,8.5,4c1.5,2.2,1.7,5,0.5,8.3
		c-0.8,2.2-0.7,3.9,0.1,5.1c1.3,1.9,4.4,2.5,5.5,2.5c1.1,0.1,1.9,1,1.8,2c0,1.1-0.9,1.9-2,1.8c-0.2,0-5.9-0.3-8.5-4.3
		c-1.5-2.3-1.7-5.2-0.5-8.5c0.7-2,0.7-3.6-0.1-4.7c-1.2-1.8-4.3-2.3-5.4-2.4C1975.3,758.7,1974.6,758.2,1974.3,757.6z"/>
	<path class="st6" d="M1661.1,2004.2c-0.3-0.1-0.5-0.2-0.7-0.4c-0.8-0.7-0.8-1.9-0.1-2.7c0.4-0.4,4.2-4.2,8.7-3.6
		c2.6,0.4,4.8,2.1,6.5,5.1c1.1,2,2.4,3.1,3.8,3.3c2.3,0.3,4.8-1.6,5.5-2.4c0.7-0.8,2-0.8,2.7,0c0.8,0.7,0.8,2,0,2.7
		c-0.2,0.2-4.2,4.1-8.8,3.4c-2.7-0.4-5-2.2-6.7-5.3c-1-1.9-2.2-2.9-3.6-3.1c-2.2-0.3-4.6,1.7-5.4,2.5
		C1662.5,2004.2,1661.7,2004.4,1661.1,2004.2z"/>
	<path class="st7" d="M1736.7,1831c0-0.3,0-0.6,0.1-0.8c0.4-1,1.5-1.5,2.5-1.1c0.6,0.2,5.5,2.3,6.6,6.7c0.7,2.6-0.1,5.2-2.3,7.9
		c-1.4,1.8-2,3.4-1.7,4.8c0.5,2.2,3.3,3.9,4.3,4.3c1,0.4,1.4,1.6,1,2.5c-0.4,1-1.5,1.5-2.5,1c-0.2-0.1-5.4-2.3-6.5-6.9
		c-0.7-2.7,0.2-5.4,2.4-8.2c1.4-1.7,1.9-3.2,1.6-4.5c-0.5-2.1-3.3-3.7-4.3-4.1C1737.2,1832.4,1736.7,1831.7,1736.7,1831z"/>
	<path class="st8" d="M1819,1648.1c-0.3,0.1-0.6,0.1-0.8,0.1c-1.1-0.1-1.8-1.1-1.7-2.1c0.1-0.6,0.8-5.9,4.8-8.1
		c2.3-1.3,5.1-1.2,8.3,0.2c2.1,0.9,3.8,1.1,5.1,0.4c2-1.1,2.9-4.2,3-5.2c0.1-1.1,1.1-1.8,2.2-1.7c1.1,0.1,1.8,1.1,1.7,2.1
		c0,0.2-0.9,5.8-5,8.1c-2.4,1.3-5.3,1.2-8.6-0.2c-2-0.9-3.6-1-4.7-0.4c-1.9,1.1-2.7,4.1-2.8,5.2
		C1820.2,1647.2,1819.7,1647.8,1819,1648.1z"/>
	<path class="st9" d="M1831.8,1348.2c0.3-0.1,0.6-0.1,0.8-0.1c1.1,0.1,1.8,1,1.7,2.1c-0.1,0.6-0.7,5.9-4.6,8.2
		c-2.3,1.3-5.1,1.3-8.3,0c-2.1-0.9-3.8-1-5.1-0.3c-2,1.1-2.8,4.3-2.9,5.3c-0.1,1.1-1.1,1.8-2.2,1.7c-1.1-0.1-1.8-1.1-1.7-2.1
		c0-0.2,0.8-5.8,4.9-8.2c2.4-1.4,5.3-1.3,8.6,0.1c2,0.8,3.6,0.9,4.7,0.3c1.9-1.1,2.6-4.2,2.7-5.3
		C1830.6,1349,1831.1,1348.4,1831.8,1348.2z"/>
	<path class="st10" d="M738.4,1530.3c0.3,0,0.6,0.1,0.8,0.2c1,0.5,1.4,1.6,0.9,2.6c-0.3,0.5-2.8,5.3-7.3,6c-2.6,0.4-5.2-0.6-7.7-3
		c-1.6-1.6-3.2-2.3-4.6-2.1c-2.3,0.3-4.1,3-4.6,3.9c-0.5,0.9-1.7,1.3-2.6,0.8c-1-0.5-1.3-1.6-0.8-2.6c0.1-0.2,2.8-5.2,7.5-5.9
		c2.7-0.4,5.4,0.6,8,3.1c1.6,1.5,3,2.2,4.3,1.9c2.2-0.4,3.9-3,4.4-3.9C737,1530.7,737.7,1530.3,738.4,1530.3z"/>
	<path class="st11" d="M677.1,1420.2c0.2-0.1,0.5-0.2,0.8-0.3c1.1-0.1,2,0.6,2.1,1.7c0.1,0.6,0.5,5.9-2.8,9c-2,1.8-4.7,2.4-8.1,1.7
		c-2.3-0.4-3.9-0.2-5,0.8c-1.7,1.5-1.8,4.7-1.8,5.8c0.1,1.1-0.7,2-1.8,2.1c-1.1,0.1-2-0.7-2.1-1.7c0-0.2-0.5-5.8,3-9
		c2-1.8,4.9-2.4,8.4-1.7c2.1,0.4,3.7,0.2,4.7-0.7c1.6-1.5,1.7-4.6,1.6-5.7C676.1,1421.3,676.5,1420.6,677.1,1420.2z"/>
	<path class="st12" d="M791.2,236.3c0.2-0.2,0.4-0.3,0.7-0.4c1-0.3,2.1,0.2,2.4,1.2c0.2,0.6,1.8,5.7-0.9,9.4
		c-1.6,2.2-4.1,3.3-7.6,3.3c-2.3,0-3.9,0.6-4.7,1.8c-1.4,1.9-0.8,5-0.5,6c0.3,1-0.3,2.1-1.3,2.4c-1,0.3-2.1-0.2-2.4-1.2
		c-0.1-0.2-1.7-5.6,1.1-9.4c1.6-2.2,4.3-3.4,7.9-3.4c2.2,0,3.7-0.6,4.4-1.7c1.3-1.8,0.7-4.9,0.4-5.9
		C790.4,237.6,790.7,236.8,791.2,236.3z"/>
	<path class="st13" d="M485,1475.7c-0.3,0.1-0.6,0.1-0.8,0.1c-1.1-0.1-1.8-1.1-1.7-2.1c0.1-0.6,0.8-5.9,4.8-8.1
		c2.3-1.3,5.1-1.2,8.3,0.2c2.1,0.9,3.8,1.1,5.1,0.4c2-1.1,2.9-4.2,3-5.2c0.1-1.1,1.1-1.8,2.2-1.7c1.1,0.1,1.8,1.1,1.7,2.1
		c0,0.2-0.9,5.8-5,8.1c-2.4,1.3-5.3,1.2-8.6-0.2c-2-0.9-3.6-1-4.7-0.4c-1.9,1.1-2.7,4.1-2.8,5.2
		C486.2,1474.9,485.7,1475.5,485,1475.7z"/>
	<path class="st14" d="M581.2,393.6c-0.1,0.3-0.2,0.5-0.4,0.8c-0.7,0.8-1.9,0.9-2.7,0.2c-0.4-0.4-4.4-4-3.9-8.6
		c0.3-2.6,1.9-4.9,4.9-6.7c2-1.2,3-2.5,3.2-3.9c0.2-2.3-1.8-4.8-2.5-5.5c-0.8-0.7-0.8-2-0.1-2.7c0.7-0.8,1.9-0.9,2.7-0.1
		c0.2,0.2,4.3,4,3.8,8.7c-0.3,2.7-2,5-5.1,6.9c-1.9,1.1-2.9,2.3-3,3.7c-0.2,2.2,1.8,4.6,2.6,5.3
		C581.2,392.1,581.4,392.9,581.2,393.6z"/>
	<path class="st15" d="M159.6,2072.1c0.3,0,0.5,0.2,0.8,0.3c0.9,0.6,1.1,1.8,0.5,2.7c-0.3,0.5-3.5,4.8-8.1,4.8
		c-2.7,0-5.1-1.4-7.1-4.2c-1.4-1.8-2.8-2.8-4.3-2.8c-2.3,0-4.5,2.3-5.2,3.1c-0.6,0.8-1.9,1-2.7,0.4c-0.9-0.6-1-1.8-0.4-2.7
		c0.1-0.2,3.6-4.7,8.3-4.6c2.7,0,5.2,1.5,7.4,4.3c1.3,1.7,2.6,2.6,4,2.6c2.2,0,4.3-2.3,5-3.2
		C158.1,2072.2,158.9,2071.9,159.6,2072.1z"/>
	<path class="st16" d="M14.3,1758.2c-0.2-0.2-0.3-0.5-0.4-0.8c-0.3-1,0.3-2.1,1.4-2.3c0.6-0.1,5.8-1.4,9.3,1.5c2,1.7,3,4.3,2.8,7.8
		c-0.1,2.3,0.4,3.9,1.5,4.9c1.8,1.5,5,1.2,5.9,0.9c1-0.2,2.1,0.4,2.3,1.4c0.3,1-0.4,2.1-1.4,2.3c-0.2,0.1-5.7,1.3-9.3-1.8
		c-2.1-1.8-3.1-4.5-2.9-8.1c0.1-2.2-0.3-3.7-1.4-4.5c-1.7-1.4-4.8-1-5.9-0.8C15.5,1759,14.8,1758.7,14.3,1758.2z"/>
	<path class="st4" d="M247.3,1565.7c0.3-0.1,0.6-0.1,0.9,0c1,0.2,1.7,1.2,1.5,2.2c-0.1,0.6-1.3,5.8-5.5,7.7
		c-2.4,1.1-5.2,0.8-8.2-0.9c-2-1.1-3.7-1.4-5-0.8c-2.1,0.9-3.2,3.9-3.4,4.9c-0.2,1-1.3,1.7-2.3,1.5c-1-0.2-1.7-1.2-1.5-2.3
		c0.1-0.2,1.4-5.7,5.7-7.6c2.5-1.1,5.4-0.8,8.5,1c1.9,1.1,3.5,1.3,4.7,0.8c2-0.9,3-3.9,3.3-4.9
		C246.1,1566.5,246.6,1565.9,247.3,1565.7z"/>
	<path class="st17" d="M288.1,1337.9c-0.3,0-0.6-0.1-0.8-0.3c-0.9-0.6-1.2-1.7-0.6-2.6c0.3-0.5,3.3-4.9,7.8-5.2
		c2.7-0.2,5.1,1.1,7.4,3.8c1.5,1.8,3,2.6,4.4,2.5c2.3-0.1,4.4-2.5,5-3.4c0.6-0.9,1.8-1.1,2.7-0.5c0.9,0.6,1.1,1.8,0.6,2.7
		c-0.1,0.2-3.3,4.8-8,5.1c-2.7,0.1-5.3-1.2-7.6-3.9c-1.4-1.7-2.8-2.5-4.1-2.4c-2.2,0.1-4.2,2.5-4.8,3.4
		C289.5,1337.7,288.8,1338,288.1,1337.9z"/>
	<path class="st18" d="M183.5,1155.5c0,0.3-0.1,0.6-0.3,0.8c-0.5,0.9-1.7,1.2-2.6,0.7c-0.5-0.3-5-3.1-5.5-7.7
		c-0.2-2.6,0.9-5.2,3.5-7.5c1.7-1.5,2.5-3,2.4-4.5c-0.2-2.3-2.7-4.3-3.5-4.9c-0.9-0.6-1.2-1.8-0.6-2.7c0.6-0.9,1.7-1.2,2.6-0.6
		c0.2,0.1,5,3.1,5.3,7.8c0.2,2.7-1,5.3-3.7,7.7c-1.6,1.4-2.4,2.8-2.2,4.2c0.2,2.2,2.7,4.1,3.6,4.7
		C183.2,1154,183.6,1154.8,183.5,1155.5z"/>
	<path class="st19" d="M2374.8,1941.5c0.5,0.3,0.5,0.7,0,0.9l-15,6.9c-0.5,0.2-0.9,0-0.9-0.6l0.5-14.7c0-0.5,0.4-0.8,0.9-0.5
		L2374.8,1941.5z"/>
	<path class="st20" d="M2496,1092.3c-0.5-0.3-0.4-0.7,0.1-0.9l15.3-6.1c0.5-0.2,0.9,0.1,0.8,0.6l-1.3,14.6c0,0.5-0.5,0.7-0.9,0.5
		L2496,1092.3z"/>
	<path class="st21" d="M2374,86.1c0.5,0.1,0.6,0.5,0.2,0.9l-12.7,10.6c-0.4,0.4-0.9,0.2-1-0.3l-3.3-14.3c-0.1-0.5,0.2-0.9,0.7-0.7
		L2374,86.1z"/>
	<path class="st20" d="M2074.6,2442c-0.4,0.4-0.8,0.3-0.9-0.2l-3.7-16.1c-0.1-0.5,0.2-0.9,0.7-0.7l14.3,3.6c0.5,0.1,0.7,0.6,0.3,1
		L2074.6,2442z"/>
	<path class="st22" d="M2060.9,1988.7c0.2-0.5,0.6-0.5,0.9-0.1l8.9,13.9c0.3,0.5,0.1,0.9-0.4,0.9l-14.6,1.5
		c-0.5,0.1-0.8-0.3-0.6-0.8L2060.9,1988.7z"/>
	<path class="st23" d="M2020.8,1564.5c-0.2,0.5-0.6,0.5-0.9,0.1l-8.9-13.9c-0.3-0.5-0.1-0.9,0.4-0.9l14.6-1.5
		c0.5-0.1,0.8,0.3,0.6,0.8L2020.8,1564.5z"/>
	<path class="st24" d="M1993.3,1374.2c-0.3-0.5-0.1-0.8,0.4-0.8l16.5,0.6c0.5,0,0.8,0.4,0.5,0.9l-7.1,12.9c-0.3,0.5-0.7,0.5-1,0
		L1993.3,1374.2z"/>
	<path class="st25" d="M2091.3,450.2c-0.4-0.4-0.3-0.8,0.2-0.9l16.2-3.1c0.5-0.1,0.9,0.2,0.7,0.8l-4.1,14.1c-0.2,0.5-0.6,0.6-1,0.3
		L2091.3,450.2z"/>
	<path class="st26" d="M2034.3,263.2c-0.3,0.5-0.7,0.5-0.9,0l-7.2-14.9c-0.2-0.5,0-0.9,0.6-0.9l14.7,0.3c0.5,0,0.8,0.4,0.5,0.9
		L2034.3,263.2z"/>
	<path class="st27" d="M2014.1,166.4c-0.5-0.1-0.6-0.5-0.2-0.9l12.7-10.6c0.4-0.4,0.9-0.2,1,0.3l3.3,14.3c0.1,0.5-0.2,0.9-0.7,0.7
		L2014.1,166.4z"/>
	<path class="st24" d="M1663.7,2436c0.5,0.1,0.6,0.5,0.2,0.9l-12.3,11c-0.4,0.4-0.9,0.2-1-0.3l-3.8-14.2c-0.1-0.5,0.2-0.9,0.7-0.8
		L1663.7,2436z"/>
	<path class="st28" d="M1880,2220.4c0-0.5,0.4-0.7,0.8-0.4l13.2,10c0.4,0.3,0.4,0.8-0.1,1l-13.2,6.4c-0.5,0.2-0.9,0-0.9-0.6
		L1880,2220.4z"/>
	<path class="st25" d="M1730,1206.9c0,0.5-0.3,0.7-0.8,0.5l-14-8.8c-0.5-0.3-0.5-0.8,0-1l12.6-7.6c0.5-0.3,0.9-0.1,0.9,0.5
		L1730,1206.9z"/>
	<path class="st19" d="M1883.3,1007.4c-0.4-0.4-0.2-0.8,0.3-0.8l16.4-1.7c0.5-0.1,0.8,0.3,0.6,0.8l-5.3,13.7c-0.2,0.5-0.7,0.6-1,0.2
		L1883.3,1007.4z"/>
	<path class="st29" d="M774.7,2301.5c-0.5-0.2-0.5-0.6,0-0.9l14.6-7.7c0.5-0.3,0.9,0,0.9,0.5l0.3,14.7c0,0.5-0.4,0.8-0.9,0.6
		L774.7,2301.5z"/>
	<path class="st29" d="M787.8,1765.8c0.2-0.5,0.6-0.5,0.9,0l7.7,14.6c0.3,0.5,0,0.9-0.5,0.9l-14.7,0.3c-0.5,0-0.8-0.4-0.6-0.9
		L787.8,1765.8z"/>
	<path class="st23" d="M768.2,1033.6c-0.5,0.1-0.8-0.3-0.5-0.8l8.3-14.3c0.3-0.5,0.7-0.5,1,0l8,12.3c0.3,0.5,0.1,0.9-0.4,0.9
		L768.2,1033.6z"/>
	<path class="st28" d="M786.5,614.5c0-0.5,0.4-0.7,0.8-0.4l12.8,10.4c0.4,0.3,0.4,0.8-0.1,1l-13.4,6c-0.5,0.2-0.9-0.1-0.9-0.6
		L786.5,614.5z"/>
	<path class="st27" d="M429.4,2399.1c-0.5-0.1-0.7-0.5-0.3-0.9l11.7-11.6c0.4-0.4,0.8-0.3,1,0.2l4.5,14c0.2,0.5-0.1,0.9-0.7,0.8
		L429.4,2399.1z"/>
	<path class="st30" d="M544.4,1204.1c0.1,0.5-0.2,0.8-0.7,0.6l-14.9-7c-0.5-0.2-0.5-0.7-0.1-1l11.6-9c0.4-0.3,0.9-0.2,1,0.4
		L544.4,1204.1z"/>
	<path class="st20" d="M397.5,688c-0.2-0.5,0-0.8,0.5-0.7l16.2,2.9c0.5,0.1,0.7,0.5,0.4,1l-8.8,11.7c-0.3,0.4-0.8,0.4-1-0.1
		L397.5,688z"/>
	<path class="st31" d="M444.4,509.1c0.5-0.1,0.8,0.2,0.6,0.7l-6.2,15.3c-0.2,0.5-0.7,0.6-1,0.2l-9.6-11.1c-0.4-0.4-0.2-0.9,0.3-1
		L444.4,509.1z"/>
	<path class="st32" d="M135.5,2288.8c0.3,0.5,0,0.8-0.5,0.7l-16.4-2.1c-0.5-0.1-0.7-0.5-0.4-0.9l8.2-12.2c0.3-0.5,0.8-0.4,1,0
		L135.5,2288.8z"/>
	<path class="st33" d="M261.6,969.2c0.2-0.5,0.6-0.6,0.9-0.1l9.7,13.4c0.3,0.4,0.1,0.9-0.4,1l-14.5,2.3c-0.5,0.1-0.8-0.3-0.7-0.8
		L261.6,969.2z"/>
	<path class="st34" d="M157.8,568.2c0.5,0.1,0.6,0.5,0.2,0.9l-12.7,10.6c-0.4,0.4-0.9,0.2-1-0.3L141,565c-0.1-0.5,0.2-0.9,0.7-0.7
		L157.8,568.2z"/>
	<path class="st35" d="M219.6,249.9c-0.3-0.4-0.1-0.8,0.4-0.8l16.5,0.3c0.5,0,0.8,0.4,0.5,0.9l-6.9,13c-0.3,0.5-0.7,0.5-1,0.1
		L219.6,249.9z"/>
	<path class="st36" d="M31.7,67.3c-0.1-0.5,0.2-0.8,0.7-0.6l15.1,6.8c0.5,0.2,0.6,0.7,0.1,1l-11.4,9.2c-0.4,0.3-0.9,0.2-1-0.3
		L31.7,67.3z"/>
	<circle class="st37" cx="2404.9" cy="2406.1" r="8.5"/>
	<circle class="st38" cx="2507.1" cy="2229.8" r="8.5"/>
	<circle class="st39" cx="2268.2" cy="652.1" r="8.5"/>
	<circle class="st40" cx="2345.8" cy="395.3" r="8.5"/>
	<circle class="st41" cx="1959.1" cy="2166.7" r="8.5"/>
	<circle class="st42" cx="2219.2" cy="1114.6" r="8.5"/>
	<circle class="st43" cx="1762.7" cy="652" r="8.5"/>
	<circle class="st44" cx="1714.8" cy="579.7" r="8.5"/>
	<circle class="st45" cx="1855" cy="233.6" r="8.5"/>
	<circle class="st44" cx="1659.9" cy="69.4" r="8.5"/>
	<circle class="st46" cx="1549.5" cy="2371.8" r="8.5"/>
	<circle class="st47" cx="840.9" cy="2458.3" r="8.5"/>
	<circle class="st48" cx="740.9" cy="2060.5" r="8.5"/>
	<circle class="st49" cx="799" cy="167.2" r="8.5"/>
	<circle class="st43" cx="554.4" cy="2308.6" r="8.5"/>
	<circle class="st50" cx="616.5" cy="1968.7" r="8.5"/>
	<circle class="st51" cx="617.1" cy="1842.7" r="8.5"/>
	<circle class="st52" cx="387" cy="1696.2" r="8.5"/>
	<circle class="st53" cx="347.8" cy="903.2" r="8.5"/>
	<circle class="st43" cx="462.2" cy="57" r="8.5"/>
	<circle class="st38" cx="166" cy="2478.9" r="8.5"/>
	<circle class="st54" cx="154.3" cy="662.2" r="8.5"/>
</g>
</svg>
